<svg version="1.1" xmlns="http://www.w3.org/2000/svg" xmlns:xlink="http://www.w3.org/1999/xlink" preserveAspectRatio="xMidYMid meet" viewBox="201.24130879345614 164.17421508421285 239.517382413088 313.6515698315743" width="235.52" height="309.65" id="Hk7xQzc9NtM">
    
    <defs>
        <path d="M386 191.08C378.8 188.4 371.4 194.81 373.17 202.33C380.17 233.03 380.89 263.78 362.76 291.53C361.65 293.23 363.62 295.32 365.38 294.34C420.88 263.65 433.83 212.35 386 191.08Z" id="dJXXgwYSy"/>
        <path d="M265.39 182.64C260.68 188.53 264.47 197.3 272 197.95C302.63 200.7 331.42 209.27 351.77 234.53C353.01 236.1 355.5 234.92 355.17 232.96C343.39 172.1 299.62 144.55 265.39 182.64Z" id="asJfUOfWr"/>
        <path d="M220.83 291.2C225.01 297.81 234.9 297.09 238.17 289.96C251.32 260.77 269.64 235.45 301.38 224.06C303.28 223.41 303.02 220.53 300.92 220.2C237.12 210.97 195.11 244.54 220.83 291.2Z" id="krOGwhByb"/>
        <path d="M313.29 368.03C322 366.39 325.46 355.73 319.31 349.38C294.31 323.33 275.4 293.43 276.84 255.34C276.97 252.99 273.83 252.07 272.65 254.1C236.07 317.12 253.61 375.36 313.29 368.03Z" id="ah29kdHQx"/>
        <path d="M261.79 435.37C261.53 433.47 261.33 431.83 261.14 430.59C260.88 432.09 260.48 433.6 259.96 435.1C259.44 436.61 258.85 438.11 258.06 439.68C256.91 442.03 251.15 453.74 240.79 474.83C230.42 453.31 224.66 441.36 223.51 438.96C222.79 437.53 222.13 436.09 221.61 434.71C221.09 433.34 220.63 431.96 220.24 430.59C220.24 431.96 220.11 433.4 219.91 434.91C219.71 436.41 219.45 437.98 219.06 439.68C218.59 441.85 216.23 452.67 211.99 472.14L202.24 472.14L217.82 403.37C229.48 428.34 235.96 442.21 237.25 444.99C237.58 445.64 238.04 446.75 238.63 448.26C239.21 449.76 240 451.66 240.85 453.95C241.51 452.05 242.49 449.63 243.8 446.75C244.19 445.97 244.45 445.38 244.58 444.92C245.85 442.15 252.2 428.3 263.62 403.37L279.59 472.14L269.64 472.14L262.38 439.62C262.16 438.35 261.97 436.94 261.79 435.37Z" id="awhoKsmZM"/>
        <path d="M331.75 472.21L324.29 455.19L298.18 455.19L290.52 472.21L279.26 472.21L311.2 403.63L343.07 472.21L331.75 472.21ZM311.09 424.38L311 424.7L310.91 425.03L310.83 425.35L310.74 425.66L310.66 425.98L310.57 426.29L310.48 426.59L310.38 426.89L310.29 427.19L310.19 427.49L310.09 427.77L309.99 428.06L309.9 428.34L309.81 428.62L309.71 428.9L309.61 429.18L309.51 429.45L309.42 429.72L309.32 429.98L309.22 430.24L309.12 430.5L309.03 430.75L308.93 431L308.84 431.24L302.1 446.29L320.49 446.29L313.75 431.24L313.66 431.01L313.57 430.78L313.48 430.54L313.39 430.3L313.29 430.05L313.2 429.8L313.11 429.54L313.01 429.28L312.91 429.02L312.81 428.75L312.71 428.47L312.61 428.19L312.51 427.91L312.42 427.62L312.32 427.32L312.23 427.02L312.13 426.72L312.03 426.41L311.93 426.09L311.84 425.77L311.74 425.45L311.64 425.11L311.54 424.77L311.45 424.43L311.36 424.08L311.26 423.72L311.17 424.05L311.09 424.38Z" id="e2nTyXvDvy"/>
        <path d="M349.28 406.25L386.13 406.25L386.13 415.34L360.02 415.34L360.02 431.9L386.13 431.9L386.13 441.32L360.02 441.32L360.02 462.65L386.13 462.65L386.13 472.27L349.28 472.27L349.28 406.25Z" id="d1YnuYxlFy"/>
        <path d="M415.32 406.25L415.67 406.25L416.02 406.25L416.37 406.26L416.71 406.26L417.05 406.27L417.38 406.28L417.7 406.29L418.02 406.3L418.34 406.31L418.65 406.32L418.96 406.33L419.26 406.35L419.55 406.36L419.84 406.38L420.13 406.39L420.41 406.41L420.69 406.43L420.96 406.45L421.23 406.47L421.49 406.49L421.75 406.52L422 406.54L422.25 406.57L422.49 406.59L422.73 406.62L422.96 406.65L423.19 406.68L423.41 406.71L423.63 406.74L423.84 406.77L424.05 406.81L424.25 406.84L424.45 406.88L424.64 406.91L424.83 406.95L425.02 406.99L425.19 407.03L425.37 407.07L425.54 407.11L425.72 407.16L425.89 407.2L426.06 407.25L426.23 407.3L426.4 407.34L426.56 407.39L426.73 407.45L426.89 407.5L427.06 407.55L427.22 407.61L427.38 407.67L427.54 407.72L427.7 407.78L427.85 407.84L428.01 407.91L428.16 407.97L428.32 408.04L428.47 408.1L428.62 408.17L428.77 408.24L428.92 408.31L429.07 408.38L429.21 408.46L429.36 408.53L429.5 408.61L429.65 408.69L429.79 408.77L429.93 408.85L430.07 408.93L430.21 409.02L430.35 409.1L430.48 409.19L430.62 409.28L430.75 409.37L430.89 409.46L431.02 409.55L431.15 409.65L431.31 409.76L431.47 409.88L431.62 410.01L431.78 410.13L431.93 410.26L432.08 410.38L432.23 410.51L432.37 410.65L432.52 410.78L432.66 410.92L432.8 411.06L432.94 411.2L433.07 411.35L433.21 411.49L433.34 411.64L433.47 411.79L433.6 411.95L433.73 412.1L433.85 412.26L433.98 412.42L434.1 412.58L434.22 412.75L434.33 412.91L434.45 413.08L434.57 413.25L434.68 413.42L434.79 413.6L434.9 413.78L435.01 413.96L435.11 414.14L435.22 414.32L435.32 414.51L435.42 414.69L435.52 414.88L435.62 415.08L435.71 415.27L435.81 415.47L435.9 415.66L435.99 415.86L436.08 416.07L436.17 416.27L436.25 416.47L436.34 416.68L436.42 416.88L436.49 417.09L436.57 417.29L436.64 417.5L436.71 417.71L436.78 417.92L436.85 418.13L436.91 418.34L436.97 418.55L437.03 418.77L437.09 418.98L437.14 419.19L437.2 419.41L437.25 419.63L437.29 419.85L437.34 420.06L437.38 420.28L437.42 420.51L437.46 420.73L437.5 420.95L437.53 421.17L437.56 421.4L437.59 421.63L437.62 421.85L437.64 422.08L437.66 422.31L437.68 422.54L437.7 422.78L437.72 423.01L437.73 423.24L437.74 423.48L437.75 423.72L437.75 423.96L437.76 424.2L437.76 424.44L437.76 424.68L437.75 424.92L437.75 425.16L437.74 425.4L437.73 425.63L437.72 425.87L437.7 426.1L437.68 426.34L437.66 426.57L437.64 426.8L437.62 427.03L437.59 427.26L437.56 427.49L437.53 427.72L437.5 427.95L437.46 428.17L437.42 428.4L437.38 428.62L437.34 428.84L437.29 429.06L437.25 429.28L437.2 429.5L437.14 429.72L437.09 429.94L437.03 430.16L436.97 430.37L436.91 430.58L436.85 430.8L436.78 431.01L436.71 431.22L436.64 431.43L436.57 431.64L436.49 431.85L436.42 432.06L436.34 432.26L436.25 432.47L436.17 432.67L436.08 432.87L435.99 433.08L435.9 433.28L435.81 433.47L435.71 433.67L435.61 433.86L435.52 434.06L435.42 434.25L435.31 434.43L435.21 434.62L435.1 434.8L435 434.98L434.89 435.16L434.78 435.34L434.66 435.52L434.55 435.69L434.43 435.86L434.32 436.03L434.2 436.19L434.07 436.36L433.95 436.52L433.83 436.68L433.7 436.84L433.57 436.99L433.44 437.15L433.31 437.3L433.18 437.45L433.04 437.59L432.91 437.74L432.77 437.88L432.63 438.02L432.49 438.16L432.35 438.29L432.2 438.43L432.06 438.56L431.91 438.68L431.76 438.81L431.61 438.93L431.46 439.06L431.3 439.18L431.15 439.29L431.02 439.38L430.89 439.47L430.75 439.56L430.62 439.64L430.48 439.73L430.35 439.81L430.21 439.89L430.07 439.98L429.93 440.06L429.79 440.13L429.65 440.21L429.5 440.29L429.36 440.36L429.21 440.43L429.07 440.51L428.92 440.58L428.77 440.65L428.62 440.71L428.47 440.78L428.32 440.85L428.16 440.91L428.01 440.97L427.85 441.03L427.7 441.09L427.54 441.15L427.38 441.21L427.22 441.27L427.06 441.32L426.89 441.38L426.73 441.43L426.56 441.48L426.4 441.53L426.23 441.58L426.06 441.63L425.89 441.67L425.72 441.72L425.54 441.76L425.37 441.8L425.19 441.84L425.02 441.88L424.83 441.92L424.64 441.96L424.45 442L424.25 442.03L424.05 442.07L423.84 442.1L423.63 442.13L423.41 442.16L423.19 442.2L422.96 442.22L422.73 442.25L422.49 442.28L422.25 442.31L422 442.33L421.75 442.36L421.49 442.38L421.23 442.4L420.96 442.42L420.69 442.44L420.41 442.46L420.13 442.48L419.84 442.5L419.55 442.51L419.26 442.53L418.96 442.54L418.65 442.56L418.34 442.57L418.02 442.58L417.7 442.59L417.38 442.6L417.05 442.6L416.71 442.61L416.37 442.62L416.02 442.62L415.67 442.62L415.32 442.63L414.96 442.63L414.59 442.63L408.44 442.63L408.44 472.21L398.36 472.21L398.36 406.25L414.59 406.25L414.96 406.25L415.32 406.25ZM409.1 433.8L411.91 433.8L413.36 433.78L414.72 433.74L416 433.67L417.19 433.58L418.31 433.45L419.34 433.3L420.29 433.13L421.15 432.92L421.94 432.69L422.65 432.43L423.27 432.15L423.82 431.83L424.29 431.48L424.72 431.1L425.11 430.67L425.46 430.2L425.76 429.68L426.03 429.13L426.25 428.54L426.44 427.91L426.58 427.23L426.68 426.51L426.74 425.76L426.76 424.96L426.74 424.1L426.68 423.28L426.57 422.51L426.41 421.78L426.21 421.09L425.97 420.45L425.68 419.85L425.35 419.29L424.97 418.78L424.55 418.31L424.08 417.88L423.56 417.5L423 417.16L422.36 416.84L421.65 416.56L420.86 416.3L419.99 416.08L419.05 415.88L418.04 415.72L416.95 415.58L415.78 415.48L414.54 415.4L413.23 415.36L411.84 415.34L409.1 415.34L409.1 433.8Z" id="b5DK4hxSxo"/>
    </defs>
    <g id="Bk4x7f5cVKf">
        <g id="HyBxQMq9VYz">
            <use xlink:href="#dJXXgwYSy" id="rkUeXzccEtz"/>
            <g id="SyDgmfqqNtG">
                <use xlink:href="#dJXXgwYSy" id="BydxmG9cEKf"/>
            </g>
        </g>
        <g id="SyFgmGqqEKG">
            <use xlink:href="#asJfUOfWr" id="r1cl7fc5VYM"/>
            <g id="SkoeQz5cVFz">
                <use xlink:href="#asJfUOfWr" id="Skne7fqcEKG"/>
            </g>
        </g>
        <g id="r16xQzcqEKz">
            <use xlink:href="#krOGwhByb" id="B1CemM9qEtf"/>
            <g id="SJJ-mfq94KM">
                <use xlink:href="#krOGwhByb" id="BkeZXz9c4tG"/>
            </g>
        </g>
        <g id="rk--mz5qVKf">
            <use xlink:href="#ah29kdHQx" id="ryM-7G5qEFM"/>
            <g id="Bkmb7zc5VtM">
                <use xlink:href="#ah29kdHQx" id="SJNZ7M994tf"/>
            </g>
        </g>
        <g id="S1BZmM59NYz">
            <use xlink:href="#awhoKsmZM" id="S1IbmMqqEKM"/>
            <g id="SJPbQfqcEtf">
                <use xlink:href="#awhoKsmZM" id="rJ_bmz5q4Yz"/>
            </g>
        </g>
        <g id="rJt-Xf9q4FG">
            <use xlink:href="#e2nTyXvDvy" id="S1cZmfcqEKf"/>
            <g id="r1obQMcq4Kz">
                <use xlink:href="#e2nTyXvDvy" id="B1hZQM59EKM"/>
            </g>
        </g>
        <g id="HyabXf99Ntf">
            <use xlink:href="#d1YnuYxlFy" id="B1AZQz55EYz"/>
            <g id="SJ1fmMqqVYG">
                <use xlink:href="#d1YnuYxlFy" id="BklM7f59NFG"/>
            </g>
        </g>
        <g id="r1ZGXzccVYM">
            <use xlink:href="#b5DK4hxSxo" id="rkMGmz59VYM"/>
            <g id="Bymfmz9qEYz">
                <use xlink:href="#b5DK4hxSxo" id="rJNfXzq54Fz"/>
            </g>
        </g>
    </g>
</svg>